<svg xmlns="http://www.w3.org/2000/svg" version="1.1" xmlns:xlink="http://www.w3.org/1999/xlink" viewBox="0 0 4.244510725333333 4.221073338666667"><g transform="matrix(0.856803044719315,0,0,0.856803044719315,1.339554485572307,1.1890449947377102)"><g transform="matrix(1,0,0,1,0,0)"><g clip-path="url(#SvgjsClipPath66924)"><path d=" M 2.63616110359375 1.0755 C 2.63616110359375 2.033364318171477 1.8596588084318937 2.809866613333333 0.9017944902604167 2.809866613333333 C -0.056069827911060854 2.809866613333333 -0.8325721230729168 2.033364318171477 -0.8325721230729168 1.0755 C -0.8325721230729168 0.11763568182852235 -0.056069827911060854 -0.6588666133333336 0.9017944902604167 -0.6588666133333336 C 1.8596588084318937 -0.6588666133333336 2.63616110359375 0.11763568182852235 2.63616110359375 1.0755 Z" fill="#0f172a" transform="matrix(1,0,0,1,0,0)" fill-rule="nonzero"></path></g></g><g transform="matrix(1,0,0,1,0,0)"><path d=" M 0 2.151 L 0.273 2.151 L 0.8160000000000001 0.5999999999999999 C 0.84 0.5309999999999997 0.879 0.4019999999999997 0.909 0.2789999999999997 C 0.93 0.35399999999999987 0.993 0.5519999999999998 1.0110000000000001 0.5999999999999999 L 1.545 2.151 L 1.824 2.151 L 1.035 -4.440892098500626e-16 L 0.792 -4.440892098500626e-16" fill="#ffffff" fill-rule="nonzero"></path></g><g transform="matrix(1,0,0,1,0,0)"></g></g><defs><clipPath id="SvgjsClipPath66924"><path d=" M -0.8560095097395835 -0.6823040000000002 h 3.539045386666667 v 3.5156080000000003 h -3.539045386666667 Z"></path></clipPath></defs></svg>