<svg xmlns="http://www.w3.org/2000/svg" version="1.1" xmlns:xlink="http://www.w3.org/1999/xlink" viewBox="0 0 3.62464406 3.6046294599999995"><g transform="matrix(0.856803044719315,0,0,0.856803044719315,1.0296211529056403,0.8808230554043764)"><g transform="matrix(1,0,0,1,0,0)"><g clip-path="url(#SvgjsClipPath8720)"><path d=" M 2.38458628359375 1.0755 C 2.38458628359375 1.8934781924979198 1.72148407609167 2.5565803999999996 0.9035058835937502 2.5565803999999996 C 0.08552769109583014 2.5565803999999996 -0.5775745164062497 1.8934781924979198 -0.5775745164062497 1.0755 C -0.5775745164062497 0.25752180750207987 0.08552769109583014 -0.40558039999999995 0.9035058835937502 -0.40558039999999995 C 1.72148407609167 -0.40558039999999995 2.38458628359375 0.25752180750207987 2.38458628359375 1.0755 Z" fill="#000000" transform="matrix(1,0,0,1,0,0)" fill-rule="nonzero"></path></g></g><g transform="matrix(1,0,0,1,0,0)"><path d=" M 0 2.151 L 0.273 2.151 L 0.8160000000000001 0.5999999999999999 C 0.84 0.5309999999999997 0.879 0.4019999999999997 0.909 0.2789999999999997 C 0.93 0.35399999999999987 0.993 0.5519999999999998 1.0110000000000001 0.5999999999999999 L 1.545 2.151 L 1.824 2.151 L 1.035 -4.440892098500626e-16 L 0.792 -4.440892098500626e-16" fill="#ffffff" fill-rule="nonzero"></path></g><g transform="matrix(1,0,0,1,0,0)"></g></g><defs><clipPath id="SvgjsClipPath8720"><path d=" M -0.5975891164062497 -0.42559499999999995 h 3.0222045999999994 v 3.0021899999999997 h -3.0222045999999994 Z"></path></clipPath></defs></svg>